<?xml version="1.0" encoding="UTF-8"?>
<svg width="38px" height="13px" viewBox="0 0 38 13" version="1.1" xmlns="http://www.w3.org/2000/svg"
     xmlns:xlink="http://www.w3.org/1999/xlink">
    <title>visa</title>

    <defs>
        <path id="visaPath"
              d="M19.26988,8.17432566 C19.2486519,6.50709315 20.7614317,5.5766483 21.9010442,5.02350107 C23.0719403,4.45588519 23.4652183,4.09194325 23.4607493,3.58442788 C23.4518111,2.80757321 22.5267139,2.46477774 21.6608318,2.45142207 C20.1502865,2.42804965 19.2721145,2.85765696 18.5738225,3.18264488 L18.0297134,0.646180993 C18.7302399,0.324531997 20.0273871,0.0440629757 21.3725768,0.0318202803 C24.529974,0.0318202803 26.595801,1.58441665 26.6069737,3.99177574 C26.6192637,7.04688472 22.3647101,7.21605651 22.3937591,8.58167353 C22.4038145,8.99569922 22.8004443,9.43754923 23.6696782,9.54995943 C24.0998261,9.60672102 25.2874811,9.65012694 26.6337881,9.03242731 L27.1622555,11.4865312 C26.4382664,11.7491927 25.5075828,12.0007244 24.3489767,12.0007244 C21.3770459,12.0007244 19.286639,10.4269816 19.26988,8.17432566 M32.240235,11.7892597 C31.6637251,11.7892597 31.1777139,11.454255 30.960964,10.9400618 L26.4505563,0.212121794 L29.6057189,0.212121794 L30.2336231,1.94056778 L34.0893122,1.94056778 L34.4535413,0.212121794 L37.2344194,0.212121794 L34.807715,11.7892597 L32.240235,11.7892597 M32.6815555,8.66180753 L33.5921283,4.31453771 L31.0983879,4.31453771 L32.6815555,8.66180753 M15.444357,11.7892597 L12.9573202,0.212121794 L15.9638863,0.212121794 L18.4498058,11.7892597 L15.444357,11.7892597 M10.9965163,11.7892597 L7.86705083,3.90941579 L6.60118709,10.6095091 C6.45259055,11.3574265 5.86602526,11.7892597 5.21465848,11.7892597 L0.0986919367,11.7892597 L0.0271868354,11.4531421 C1.07741801,11.2260957 2.27065939,10.8599278 2.99353127,10.4681616 C3.43596909,10.2288725 3.56222028,10.0196337 3.70746502,9.4509049 L6.10512045,0.212121794 L9.28262839,0.212121794 L14.1539134,11.7892597 L10.9965163,11.7892597"></path>

        <linearGradient id="visaLinearGradient" x1="16.1481739%" y1="34.4008407%" x2="85.8318643%" y2="66.3485849%">
            <stop stop-color="#222357" offset="0%"></stop>
            <stop stop-color="#254AA5" offset="100%"></stop>
        </linearGradient>

        <mask id="visaMask" fill="white">
            <use xlink:href="#visaPath"></use>
        </mask>
    </defs>

    <g mask="url(#visaMask)" transform="scale(1, -1) translate(0, -13)">
        <polyline transform="translate(-3.872506, -12.093843)" fill="url(#visaLinearGradient)"
                  points="0 22.6304369 36.6601441 36.0795942 45.0001713 13.5200166 8.34039971 0.0708592367"></polyline>
    </g>
</svg>